<?xml version="1.0" encoding="UTF-8"?>
<svg width="256px" height="256px" viewBox="0 0 256 256" version="1.1" xmlns="http://www.w3.org/2000/svg" xmlns:xlink="http://www.w3.org/1999/xlink">
    <title>StampKit</title>
    <defs>
        <linearGradient x1="100%" y1="100%" x2="0%" y2="100%" id="linearGradient-1">
            <stop stop-color="#73D8F3" offset="0%"></stop>
            <stop stop-color="#3FB0E4" offset="100%"></stop>
        </linearGradient>
        <linearGradient x1="100%" y1="100%" x2="0%" y2="100%" id="linearGradient-2">
            <stop stop-color="#2A9FEB" offset="0%"></stop>
            <stop stop-color="#2A9FEB" offset="35.245171%"></stop>
            <stop stop-color="#5CC0F2" offset="54.19997%"></stop>
            <stop stop-color="#2A9FEB" offset="67.2755715%"></stop>
            <stop stop-color="#2A9FEB" offset="100%"></stop>
        </linearGradient>
        <linearGradient x1="100%" y1="58.8706285%" x2="0%" y2="59.996838%" id="linearGradient-3">
            <stop stop-color="#0461C1" offset="0%"></stop>
            <stop stop-color="#0461C1" offset="34.9593591%"></stop>
            <stop stop-color="#1B7EE3" offset="54.7694883%"></stop>
            <stop stop-color="#0B6DD3" offset="71.5435451%"></stop>
            <stop stop-color="#0461C1" offset="100%"></stop>
        </linearGradient>
        <linearGradient x1="18.8134225%" y1="30.9485356%" x2="75.8403482%" y2="67.2630815%" id="linearGradient-4">
            <stop stop-color="#38BEF1" stop-opacity="0.613964161" offset="0%"></stop>
            <stop stop-color="#2DAAEA" stop-opacity="0.850360577" offset="38.314124%"></stop>
            <stop stop-color="#0F6DB4" offset="100%"></stop>
        </linearGradient>
        <linearGradient x1="25.0135938%" y1="36.0171958%" x2="76.8562655%" y2="62.8625118%" id="linearGradient-5">
            <stop stop-color="#3FB0E4" offset="0%"></stop>
            <stop stop-color="#0151A3" offset="100%"></stop>
        </linearGradient>
    </defs>
    <g id="StampKit" stroke="none" stroke-width="1" fill="none" fill-rule="evenodd">
        <g id="Group" transform="translate(-7.000000, -6.000000)">
            <path d="M253.072083,145.091797 L253.072083,163.091797 C252.906243,169.12714 250.871452,175.164922 246.847207,180.27092 C245.418258,182.083983 243.777936,183.71994 241.961072,185.144053 L168.065994,243.06524 C149.298197,257.776004 122.929762,257.836165 104.095034,243.211192 L29.417979,185.225226 C22.2813084,179.683674 18.4412743,171.470219 18.2133003,163.09189 L18.2,163.091797 L18.2,145.091797 L18.2603188,145.133892 C18.7656529,153.14729 22.5774606,160.913633 29.417979,166.225226 L29.417979,166.225226 L104.095034,224.211192 C122.929762,238.836165 149.298197,238.776004 168.065994,224.06524 L168.065994,224.06524 L241.961072,166.144053 C243.777936,164.71994 245.418258,163.083983 246.847207,161.27092 C250.640307,156.458201 252.665931,150.817662 253.016834,145.131645 L253.072083,145.091797 Z" id="Combined-Shape" fill="url(#linearGradient-1)"></path>
            <path d="M253.072083,126.091797 L253.072083,144.091797 C252.906243,150.12714 250.871452,156.164922 246.847207,161.27092 C245.418258,163.083983 243.777936,164.71994 241.961072,166.144053 L168.065994,224.06524 C149.298197,238.776004 122.929762,238.836165 104.095034,224.211192 L29.417979,166.225226 C22.2813084,160.683674 18.4412743,152.470219 18.2133003,144.09189 L18.2,144.091797 L18.2,126.091797 L18.2603188,126.133892 C18.7656529,134.14729 22.5774606,141.913633 29.417979,147.225226 L29.417979,147.225226 L104.095034,205.211192 C122.929762,219.836165 149.298197,219.776004 168.065994,205.06524 L168.065994,205.06524 L241.961072,147.144053 C243.777936,145.71994 245.418258,144.083983 246.847207,142.27092 C250.640307,137.458201 252.665931,131.817662 253.016834,126.131645 L253.072083,126.091797 Z" id="Combined-Shape" fill="url(#linearGradient-2)"></path>
            <path d="M253.072083,107.091797 L253.072083,125.091797 C252.906243,131.12714 250.871452,137.164922 246.847207,142.27092 C245.418258,144.083983 243.777936,145.71994 241.961072,147.144053 L168.065994,205.06524 C149.298197,219.776004 122.929762,219.836165 104.095034,205.211192 L29.417979,147.225226 C22.2813084,141.683674 18.4412743,133.470219 18.2133003,125.09189 L18.2,125.091797 L18.2,107.091797 L18.2603188,107.133892 C18.7656529,115.14729 22.5774606,122.913633 29.417979,128.225226 L29.417979,128.225226 L104.095034,186.211192 C122.929762,200.836165 149.298197,200.776004 168.065994,186.06524 L168.065994,186.06524 L241.961072,128.144053 C243.777936,126.71994 245.418258,125.083983 246.847207,123.27092 C250.640307,118.458201 252.665931,112.817662 253.016834,107.131645 L253.072083,107.091797 Z" id="Combined-Shape" fill="url(#linearGradient-3)"></path>
            <path d="M29.3571474,83.3697843 L103.985444,25.1029971 C122.86259,10.3644771 149.364809,10.4250228 168.174416,25.2496402 L242.021824,83.4517898 C254.60086,93.3658397 256.761257,111.600088 246.847207,124.179123 C245.418258,125.992186 243.777936,127.628143 241.961072,129.052256 L168.065994,186.973443 C149.298197,201.684208 122.929762,201.744368 104.095034,187.119395 L29.417979,129.133429 C16.767618,119.310553 14.4754881,101.092396 24.2983635,88.4420349 C25.7685127,86.5487077 27.4677353,84.8449617 29.3571474,83.3697843 Z" id="Rectangle" fill="url(#linearGradient-4)"></path>
            <path d="M168.377213,51.7514311 L242.224622,109.953581 C245.66903,112.668259 248.332268,116.00677 250.180342,119.682191 C249.320097,121.387192 248.277618,123.03151 247.050004,124.589117 C245.621056,126.40218 243.980734,128.038137 242.16387,129.46225 L168.268792,187.383437 C149.500994,202.094202 123.132559,202.154362 104.297831,187.529389 L29.6207763,129.543423 C26.0979189,126.80796 23.378347,123.42144 21.5,119.68541 C22.3299146,118.041342 23.32933,116.452965 24.5011609,114.943826 C25.97131,113.050499 27.6705326,111.346753 29.5599447,109.871575 L104.188241,51.6047879 C123.065387,36.866268 149.567606,36.9268137 168.377213,51.7514311 Z" id="Combined-Shape" fill="url(#linearGradient-5)"></path>
            <g id="stamp-timeline-glyph" transform="translate(136.321394, 111.708775) rotate(-50.000000) translate(-136.321394, -111.708775) translate(96.821394, 40.708775)" fill="#FFFFFF" fill-opacity="0.393438593" fill-rule="nonzero" stroke="#FFFFFF">
                <path d="M58.7705004,1.66147201 C64.5645653,3.83426202 69.2722431,10.2339052 69.2722431,15.9325801 C69.2722431,20.6862533 65.9964413,23.542916 61.5468232,23.1893514 L61.5468525,36.4532626 C69.1170499,40.2753601 74.8731725,48.6406704 74.8731725,56.4014117 C74.8731725,64.1621529 69.1170499,68.8990662 61.5468525,67.9599636 L61.5468232,81.7033208 C65.9964413,84.1441945 69.2722431,89.060797 69.2722431,93.8144702 C69.2722431,98.5681435 65.9964413,101.743621 61.5468232,101.821505 L61.5468232,121.019398 C65.9964413,123.244547 69.2722431,128.001742 69.2722431,132.755415 C69.2722431,138.45409 64.5645653,142.123021 58.7705004,140.939953 C52.9764355,139.756885 48.2687578,134.044976 48.2687578,128.198003 C48.2687578,123.320711 51.5444413,119.951922 55.9939367,119.746032 L55.9939367,100.417185 C51.5444413,98.0672726 48.2687578,93.1209755 48.2687578,88.2436838 C48.2687578,83.3663921 51.5444413,80.1542908 55.9939367,80.1620397 L55.993907,66.3249046 C48.4238286,62.7728072 42.6678284,54.3687446 42.6678284,46.2962243 C42.6678284,38.223704 48.4238286,33.4156454 55.993907,34.6035862 L55.9939367,21.2492013 C51.5444413,18.4720106 48.2687578,13.2123373 48.2687578,8.33504556 C48.2687578,2.48807204 52.9764355,-0.505779802 58.7705004,1.66147201 Z M58.7705004,124.293889 C55.3423454,123.524232 52.5660226,125.688342 52.5660226,129.129994 C52.5660226,132.571647 55.3423454,135.940258 58.7705004,136.658162 C62.1986555,137.376126 64.9749783,135.212348 64.9749783,131.822534 C64.9749783,128.432721 62.1986555,125.063778 58.7705004,124.293889 Z M58.7705004,84.8436805 C55.3423454,83.9088965 52.5660226,85.9396792 52.5660226,89.3813317 C52.5660226,92.8229842 55.3423454,96.3249224 58.7705004,97.2079532 C62.1986555,98.0915928 64.9749783,96.0623912 64.9749783,92.6725779 C64.9749783,89.2827646 62.1986555,85.7792453 58.7705004,84.8436805 Z M58.7705004,5.94326296 C55.3423454,4.67822559 52.5660226,6.44235442 52.5660226,9.8840069 C52.5660226,13.3256594 55.3423454,17.0942515 58.7705004,18.3075357 C62.1986555,19.522527 64.9749783,17.7624785 64.9749783,14.3726652 C64.9749783,10.9828519 62.1986555,7.21017948 58.7705004,5.94326296 Z" id="Shape" transform="translate(58.770500, 71.058802) rotate(-3.000000) translate(-58.770500, -71.058802) "></path>
                <path d="M24.6185933,43.3032226 L15.4686585,61.1752792 L5.00798926,58.9905889 L5.00798926,19.2825315 L15.4686585,21.4977305 L24.6185933,43.3032226 Z M1.73115311,14.1394441 C1.02537301,13.9950752 0.470831507,14.4278451 0.470831507,15.1226246 L0.470831507,61.2758374 C0.470831507,61.970617 1.02537301,62.6313871 1.73115311,62.7776561 L17.5859988,66.0822745 C18.0901275,66.1878975 18.5186368,66.0050598 18.7202883,65.6012152 L29.3574026,44.8555994 C29.5086412,44.5674497 29.5086412,44.1967597 29.3574026,43.8423276 L18.7202883,18.4855891 C18.5186368,17.9705332 18.064921,17.5986553 17.5607924,17.4885876 L1.73115311,14.1394441 Z" id="Shape"></path>
            </g>
        </g>
    </g>
</svg>