<?xml version="1.0" encoding="UTF-8"?>
<svg width="256px" height="256px" viewBox="0 0 256 256" version="1.1" xmlns="http://www.w3.org/2000/svg" xmlns:xlink="http://www.w3.org/1999/xlink">
    <title>StampKit</title>
    <defs>
        <linearGradient x1="100%" y1="100%" x2="0%" y2="100%" id="linearGradient-1">
            <stop stop-color="#73D8F3" offset="0%"></stop>
            <stop stop-color="#3FB0E4" offset="100%"></stop>
        </linearGradient>
        <linearGradient x1="100%" y1="100%" x2="0%" y2="100%" id="linearGradient-2">
            <stop stop-color="#2A9FEB" offset="0%"></stop>
            <stop stop-color="#2A9FEB" offset="35.245171%"></stop>
            <stop stop-color="#5CC0F2" offset="54.19997%"></stop>
            <stop stop-color="#2A9FEB" offset="67.2755715%"></stop>
            <stop stop-color="#2A9FEB" offset="100%"></stop>
        </linearGradient>
        <linearGradient x1="100%" y1="58.8706285%" x2="0%" y2="59.996838%" id="linearGradient-3">
            <stop stop-color="#0461C1" offset="0%"></stop>
            <stop stop-color="#0461C1" offset="34.9593591%"></stop>
            <stop stop-color="#1B7EE3" offset="54.7694883%"></stop>
            <stop stop-color="#0B6DD3" offset="71.5435451%"></stop>
            <stop stop-color="#0461C1" offset="100%"></stop>
        </linearGradient>
        <linearGradient x1="18.8134225%" y1="30.9485356%" x2="75.8403482%" y2="67.2630815%" id="linearGradient-4">
            <stop stop-color="#38BEF1" stop-opacity="0.613964161" offset="0%"></stop>
            <stop stop-color="#2DAAEA" stop-opacity="0.850360577" offset="38.314124%"></stop>
            <stop stop-color="#0F6DB4" offset="100%"></stop>
        </linearGradient>
        <linearGradient x1="25.0135938%" y1="36.0171958%" x2="76.8562655%" y2="62.8625118%" id="linearGradient-5">
            <stop stop-color="#3FB0E4" offset="0%"></stop>
            <stop stop-color="#0151A3" offset="100%"></stop>
        </linearGradient>
    </defs>
    <g id="StampKit" stroke="none" stroke-width="1" fill="none" fill-rule="evenodd">
        <g id="StampKit-Icon" transform="translate(-7.000000, -6.000000)">
            <path d="M253.072083,145.091797 L253.072083,163.091797 C252.906243,169.12714 250.871452,175.164922 246.847207,180.27092 C245.418258,182.083983 243.777936,183.71994 241.961072,185.144053 L168.065994,243.06524 C149.298197,257.776004 122.929762,257.836165 104.095034,243.211192 L29.417979,185.225226 C22.2813084,179.683674 18.4412743,171.470219 18.2133003,163.09189 L18.2,163.091797 L18.2,145.091797 L18.2603188,145.133892 C18.7656529,153.14729 22.5774606,160.913633 29.417979,166.225226 L29.417979,166.225226 L104.095034,224.211192 C122.929762,238.836165 149.298197,238.776004 168.065994,224.06524 L168.065994,224.06524 L241.961072,166.144053 C243.777936,164.71994 245.418258,163.083983 246.847207,161.27092 C250.640307,156.458201 252.665931,150.817662 253.016834,145.131645 L253.072083,145.091797 Z" id="Combined-Shape" fill="url(#linearGradient-1)"></path>
            <path d="M253.072083,126.091797 L253.072083,144.091797 C252.906243,150.12714 250.871452,156.164922 246.847207,161.27092 C245.418258,163.083983 243.777936,164.71994 241.961072,166.144053 L168.065994,224.06524 C149.298197,238.776004 122.929762,238.836165 104.095034,224.211192 L29.417979,166.225226 C22.2813084,160.683674 18.4412743,152.470219 18.2133003,144.09189 L18.2,144.091797 L18.2,126.091797 L18.2603188,126.133892 C18.7656529,134.14729 22.5774606,141.913633 29.417979,147.225226 L29.417979,147.225226 L104.095034,205.211192 C122.929762,219.836165 149.298197,219.776004 168.065994,205.06524 L168.065994,205.06524 L241.961072,147.144053 C243.777936,145.71994 245.418258,144.083983 246.847207,142.27092 C250.640307,137.458201 252.665931,131.817662 253.016834,126.131645 L253.072083,126.091797 Z" id="Combined-Shape" fill="url(#linearGradient-2)"></path>
            <path d="M253.072083,107.091797 L253.072083,125.091797 C252.906243,131.12714 250.871452,137.164922 246.847207,142.27092 C245.418258,144.083983 243.777936,145.71994 241.961072,147.144053 L168.065994,205.06524 C149.298197,219.776004 122.929762,219.836165 104.095034,205.211192 L29.417979,147.225226 C22.2813084,141.683674 18.4412743,133.470219 18.2133003,125.09189 L18.2,125.091797 L18.2,107.091797 L18.2603188,107.133892 C18.7656529,115.14729 22.5774606,122.913633 29.417979,128.225226 L29.417979,128.225226 L104.095034,186.211192 C122.929762,200.836165 149.298197,200.776004 168.065994,186.06524 L168.065994,186.06524 L241.961072,128.144053 C243.777936,126.71994 245.418258,125.083983 246.847207,123.27092 C250.640307,118.458201 252.665931,112.817662 253.016834,107.131645 L253.072083,107.091797 Z" id="Combined-Shape" fill="url(#linearGradient-3)"></path>
            <path d="M29.3571474,83.3697843 L103.985444,25.1029971 C122.86259,10.3644771 149.364809,10.4250228 168.174416,25.2496402 L242.021824,83.4517898 C254.60086,93.3658397 256.761257,111.600088 246.847207,124.179123 C245.418258,125.992186 243.777936,127.628143 241.961072,129.052256 L168.065994,186.973443 C149.298197,201.684208 122.929762,201.744368 104.095034,187.119395 L29.417979,129.133429 C16.767618,119.310553 14.4754881,101.092396 24.2983635,88.4420349 C25.7685127,86.5487077 27.4677353,84.8449617 29.3571474,83.3697843 Z" id="Rectangle" fill="url(#linearGradient-4)"></path>
            <path d="M168.377213,51.7514311 L242.224622,109.953581 C245.66903,112.668259 248.332268,116.00677 250.180342,119.682191 C249.320097,121.387192 248.277618,123.03151 247.050004,124.589117 C245.621056,126.40218 243.980734,128.038137 242.16387,129.46225 L168.268792,187.383437 C149.500994,202.094202 123.132559,202.154362 104.297831,187.529389 L29.6207763,129.543423 C26.0979189,126.80796 23.378347,123.42144 21.5,119.68541 C22.3299146,118.041342 23.32933,116.452965 24.5011609,114.943826 C25.97131,113.050499 27.6705326,111.346753 29.5599447,109.871575 L104.188241,51.6047879 C123.065387,36.866268 149.567606,36.9268137 168.377213,51.7514311 Z" id="Combined-Shape" fill="url(#linearGradient-5)"></path>
        </g>
        <path d="M165.070645,134.568155 L164.012594,135.335217 L163.921442,135.403236 C161.494619,137.18387 159.035086,139.004052 156.690803,140.766188 L155.692416,141.515189 L154.347082,142.529838 L153.460326,143.20285 L152.439607,143.982703 L151.469713,144.730109 L150.552384,145.444272 L149.970891,145.901518 L149.414047,146.343398 L148.626119,146.976885 L148.13314,147.379306 L147.666606,147.765523 L147.227026,148.135293 L146.814912,148.488372 L146.285478,148.949609 L145.53742,149.612692 L145.068957,150.035827 L144.624293,150.444027 L144.203091,150.837462 L143.805009,151.216298 L143.429705,151.580698 L143.076836,151.930821 L142.58884,152.429578 L142.290541,152.744686 L142.01346,153.046051 L141.757246,153.333818 C141.716262,153.380652 141.676134,153.426928 141.636854,153.472648 L141.41128,153.740287 L141.20569,153.994681 L141.019729,154.235966 L140.853041,154.464279 L140.783274,154.562951 L140.809677,154.578761 C141.091174,154.745446 141.371537,154.88441 141.665369,155.000951 L141.795797,155.049181 L141.808368,155.039751 C141.927564,155.022278 142.095605,154.979855 142.303996,154.912351 L142.591255,154.812672 C142.693118,154.77526 142.801049,154.733684 142.914915,154.687991 L143.274159,154.538552 L143.668165,154.364594 C143.736683,154.333568 143.806616,154.301532 143.877948,154.268493 L144.301981,154.068108 L144.732883,153.857338 L145.188868,153.627723 L145.669369,153.379507 L146.43485,152.972835 L147.252296,152.525663 L147.825181,152.205444 L148.724964,151.692549 L149.67158,151.141276 L150.411776,150.70272 L151.692703,149.929785 L152.576043,149.387221 L153.941966,148.534125 L154.878006,147.940201 L155.832912,147.326907 L157.29788,146.37213 L158.798203,145.377603 L160.329644,144.34566 L161.365807,143.638078 L162.412677,142.915627 L164.000338,141.80564 L165.605113,140.666256 L167.222841,139.499962 L168.842026,138.314698 L170.434921,137.13082 L171.479411,136.344641 L173.017271,135.172356 L174.021686,134.396887 L175.494382,133.245188 L176.452,132.486485 L177.389029,131.736209 L178.753645,130.628773 L180.065971,129.545918 L180.910046,128.839352 L181.728247,128.146243 L182.519524,127.467612 L183.653669,126.479055 L184.651104,125.592024 L185.45135,124.866315 L186.19971,124.174206 L186.669118,123.732269 L187.327967,123.099768 L187.931284,122.50519 L188.477695,121.950146 L188.965824,121.436239 L189.271527,121.102463 L189.558494,120.777509 L189.811227,120.478245 C189.889712,120.382841 189.962423,120.291845 190.029282,120.205367 L190.212212,119.959569 C190.239748,119.920896 190.265802,119.883381 190.290365,119.847039 C190.381777,119.711757 190.450048,119.59622 190.494516,119.504184 L190.523392,119.439619 C190.527334,119.429915 190.529839,119.42423 190.532501,119.424713 L190.501803,119.308723 C190.416153,119.042298 190.301235,118.781337 190.15313,118.51352 L190.134561,118.482084 L189.956284,118.544048 L189.678853,118.646291 C189.631106,118.664484 189.582602,118.683259 189.533338,118.702622 L189.228579,118.825889 L188.905336,118.963538 L188.563398,119.115858 L188.014967,119.372477 L187.625348,119.56273 L187.004379,119.877569 L186.3389,120.228592 L185.870151,120.483164 L185.381064,120.754494 L184.871412,121.042848 L184.340969,121.348487 L183.789505,121.671668 L183.21679,122.012648 L182.317359,122.558033 L181.795812,122.879728 L181.308463,123.186234 L180.798197,123.512833 L180.265425,123.859091 L179.424967,124.414394 L178.837727,124.807906 L178.229416,125.219558 L176.951216,126.095536 L175.940296,126.796886 L174.886101,127.534623 L173.036692,128.841029 L172.479448,129.237103 C170.061566,130.951116 167.544631,132.766701 165.070645,134.568155 Z M163.315584,132.638901 L162.187593,133.478264 L160.102925,134.979775 L158.400914,136.206426 L157.107823,137.139172 L155.497824,138.302152 C155.225698,138.49884 154.952142,138.696767 154.677793,138.895514 L153.026634,140.093289 L151.396931,141.281202 L150.334646,142.05992 L149.640758,142.571087 L148.627953,143.321762 L147.975279,143.80912 L147.343709,144.284118 L146.735892,144.74515 L146.154477,145.190616 L145.602121,145.618927 L145.08148,146.028499 L144.595217,146.417752 L144.109762,146.812943 L143.645272,147.196303 L143.201365,147.567851 L142.573249,148.103065 L141.989266,148.611787 L141.4481,149.094053 L140.948432,149.549885 L140.488936,149.979296 L140.068282,150.382287 L139.685132,150.75885 L139.338147,151.108965 L139.025979,151.432606 L138.836544,151.633641 L138.579404,151.913073 L138.219519,152.319674 L137.893204,152.709696 L137.671691,152.992363 L137.576812,153.120834 L137.557566,153.10853 C137.551137,153.104544 137.542998,153.104487 137.532796,153.107129 L137.495649,153.121919 L137.412101,153.158298 L137.334771,153.181237 C137.189997,153.213453 136.96286,153.205389 136.609461,153.003294 C136.297263,152.824843 135.864393,152.456359 135.490711,152.113403 L135.189155,151.830829 L134.941718,151.59084 L123.910836,140.65967 L123.941358,140.639082 C123.877465,140.609213 123.822647,140.572786 123.778179,140.528979 C123.615395,140.368634 123.591465,140.120076 123.695489,139.792402 L123.747895,139.647102 C123.777998,139.572035 123.813931,139.493367 123.855597,139.411178 L123.946536,139.242114 C123.962956,139.21316 123.980005,139.183821 123.99768,139.154099 L124.111206,138.971188 L124.239568,138.779216 L124.382587,138.578317 L124.540083,138.368625 L124.711878,138.150274 L124.897792,137.923397 L125.097644,137.688127 L125.311255,137.444594 L125.538445,137.19293 L125.904293,136.800476 L126.164636,136.529057 L126.579367,136.107578 L127.02261,135.669269 L127.333644,135.367927 L127.823047,134.902534 L128.339327,134.421469 L128.881871,133.925166 L129.645055,133.240475 L130.043291,132.888581 L130.45238,132.530492 L131.30239,131.796246 L131.967035,131.230258 L132.888244,130.456031 L133.604618,129.861246 L134.592578,129.050212 L135.35735,128.429018 L136.898107,127.028364 L137.338009,126.700515 L138.041334,126.167073 L139.054489,125.385569 L141.910033,123.152054 L143.158436,122.177249 L144.126505,121.426524 L145.11777,120.664538 L146.128622,119.896328 L146.81163,119.383235 L147.500686,118.871143 C147.806125,118.646479 148.112389,118.423125 148.418741,118.201341 L149.235909,117.612877 L149.949501,117.104055 L150.658781,116.602276 L151.710052,115.864494 L152.739903,115.146902 L156.784421,112.335914 L157.833681,111.591494 L158.314084,111.244437 L158.762261,110.91525 C158.834155,110.861916 158.904624,110.809366 158.973623,110.757616 L160.821082,109.690778 L161.653109,109.137137 L162.738294,108.422971 L163.794441,107.737317 L164.566579,107.242484 L165.568246,106.609518 L166.297778,106.155538 L167.24031,105.578824 L167.923746,105.168373 L168.367841,104.905529 L169.016216,104.52781 L169.6427,104.170388 L170.047878,103.943624 L170.636452,103.621117 L171.015762,103.418084 L171.384391,103.224796 L171.916894,102.953453 L172.257989,102.785159 L172.587736,102.627113 L172.905944,102.479459 L173.212422,102.342338 L173.506976,102.215892 L173.789416,102.100262 L174.059548,101.995589 L174.31718,101.902012 L174.562119,101.81967 L174.794172,101.748701 C174.831762,101.737828 174.868808,101.727435 174.905305,101.717525 L175.117663,101.663873 L175.316648,101.621937 C175.861276,101.519776 176.242662,101.560566 176.440399,101.757284 C176.47018,101.786915 176.49558,101.819867 176.516653,101.85608 L176.545027,101.912843 L176.573665,101.889886 L187.638618,112.962946 L187.951894,113.28846 L188.196761,113.55269 C188.531486,113.921188 188.881345,114.339186 189.035708,114.629578 C189.213827,114.964666 189.18558,115.161627 189.123255,115.281525 L189.0834,115.344692 L189.012839,115.427277 C189.000881,115.4421 188.995266,115.453292 189.00067,115.462505 L189.011844,115.481466 L188.678802,115.608988 L188.401303,115.723203 L188.151355,115.830752 L187.654753,116.055182 L187.185119,116.278506 L186.790484,116.473341 L186.35935,116.692889 L185.891575,116.938292 L185.387016,117.210678 L185.030134,117.407815 L184.463933,117.727662 L183.860537,118.07746 L183.437529,118.327838 L182.997867,118.592333 L182.541501,118.871264 L181.825514,119.317419 L181.071641,119.79782 L180.547918,120.137628 L180.007215,120.493424 L179.473579,120.85063 L178.910914,121.23398 L178.321543,121.6414 L177.707792,122.070819 L177.071992,122.520173 L176.416477,122.987406 L175.743585,123.470471 L174.706793,124.220296 L173.644107,124.994326 L172.563486,125.785782 L171.285238,126.726289 L169.633111,127.946882 C169.359178,128.149537 169.086395,128.351587 168.81535,128.552559 L167.214055,129.740569 L163.315584,132.638901 Z M145.612584,116.853003 L145.136933,117.202529 C144.97538,117.321522 144.818532,117.438578 144.666351,117.553656 L143.891561,118.144578 L143.078327,118.777158 L142.281231,119.410825 C142.193643,119.48119 142.1064,119.551536 142.019516,119.621845 L141.502575,120.043011 L140.994856,120.462385 L140.497046,120.879213 L140.009833,121.292747 L139.533905,121.70224 L139.069954,122.106949 L138.618672,122.506133 L138.180752,122.899053 L137.756888,123.284974 L137.347776,123.663162 L136.954112,124.032883 L136.576594,124.39341 L136.215918,124.744011 L135.872784,125.083961 L135.547891,125.412532 L135.241938,125.729 L134.955625,126.032639 L134.689651,126.322724 L134.444717,126.59853 L134.221521,126.859333 L134.020763,127.104406 C133.926103,127.222876 133.840128,127.335192 133.763224,127.440934 L133.689354,127.544457 C133.129972,127.447826 132.594505,127.207847 132.242208,126.707419 C131.482849,125.629126 131.257675,124.817298 131.188716,124.050826 L131.171697,123.810039 L131.162415,123.570709 L131.157217,123.21108 L131.152723,122.722329 L131.145587,122.470546 L131.131677,122.211787 L131.108361,121.94453 C130.992853,120.856587 130.588803,119.52891 129.139976,117.526879 C127.680447,115.51196 125.761723,113.586269 123.796115,111.851401 L123.234167,111.362162 L122.671875,110.883979 C122.578252,110.805238 122.4847,110.726971 122.391261,110.649186 L121.832425,110.188505 L121.278538,109.740097 L120.731713,109.304439 L120.194061,108.882006 L119.15471,108.078679 L116.864251,106.33411 L116.291913,105.890462 C116.231833,105.843336 116.172966,105.796938 116.115356,105.751278 C114.83791,104.739748 113.112479,103.672436 111.121561,102.560664 L110.312052,102.114819 L109.477009,101.664786 L108.619039,101.210749 L107.740746,100.752887 L106.39089,100.0593 L102.189709,97.9347106 L100.767923,97.2135861 C100.610006,97.1331518 100.452153,97.0525968 100.294418,96.9719236 L99.3499791,96.4867611 C96.52614,95.0326443 93.7752291,93.5419419 91.4091436,92.0266836 C89.7271136,91.1391258 88.1705324,90.051116 86.7950169,88.7660768 C78.9639126,81.4954886 79.9633254,70.4006041 88.8421262,63.5815691 L89.1124373,63.3739816 C98.0737148,56.4919626 111.546018,56.5736009 119.509714,63.7698095 L119.792642,64.0317149 C122.100818,66.1914658 124.214687,69.3541599 126.198207,72.8067391 L126.692549,73.677699 L127.181851,74.5585791 L127.666323,75.4468786 L128.384426,76.7877572 L129.092816,78.131216 L130.48315,80.7918678 L131.166413,82.0920074 L131.617951,82.941782 L132.066533,83.7750064 L132.512343,84.5891374 C133.847687,87.0039724 135.145631,89.1219472 136.429645,90.6357559 L136.715217,90.9764074 L137.33568,91.7340855 L138.766032,93.5041212 L139.364623,94.2366867 L139.995656,94.997215 L140.433888,95.5167233 L140.885818,96.0440865 C140.962269,96.1325405 141.039275,96.2212381 141.116829,96.3101403 L141.58876,96.8458434 L142.073655,97.3848053 L142.57122,97.9251804 C144.336358,99.8204772 146.327351,101.704938 148.4836,103.21578 C150.622732,104.719224 152.120207,105.245357 153.378411,105.494076 L153.688239,105.550951 L153.989486,105.59868 L154.283556,105.639708 L155.136772,105.747079 L155.416211,105.785814 L155.69552,105.830121 C156.627964,105.989987 157.581878,106.283916 158.793443,107.12368 C159.35883,107.516051 159.55093,108.042321 159.561536,108.56083 L159.561536,108.671764 C159.459606,108.698954 159.348911,108.732841 159.22951,108.773184 L158.979234,108.86238 L158.706602,108.968321 C158.659349,108.987348 158.6112,109.007054 158.562176,109.027432 L158.257647,109.157652 C158.205185,109.180669 158.151884,109.204338 158.097761,109.22865 L157.763294,109.382138 L157.409957,109.550575 L157.038619,109.733508 L156.65015,109.930485 L156.245421,110.141054 L155.825301,110.364763 L155.168166,110.723976 L154.481297,111.110215 L154.008318,111.381971 L153.524301,111.664615 L153.030121,111.957699 L152.526649,112.260778 L152.01476,112.573406 L151.49533,112.895142 L150.969233,113.225544 L150.169508,113.736438 L149.630586,114.086592 L149.088072,114.443887 L148.542848,114.807891 L147.995796,115.178177 L147.447799,115.554318 L146.899743,115.935893 L146.352515,116.322479 L146.079488,116.517521 C145.926806,116.62572 145.771157,116.737535 145.612584,116.853003 Z" id="Combined-Shape" stroke="#FFFFFF" fill-opacity="0.39" fill="#FFFFFF" fill-rule="nonzero" transform="translate(136.016438, 106.670111) rotate(-3.000000) translate(-136.016438, -106.670111) "></path>
    </g>
</svg>